<svg width="48" height="49" viewBox="0 0 48 49" fill="none" xmlns="http://www.w3.org/2000/svg">
<rect y="0.5" width="48" height="48" rx="24" fill="#B8B9BB"/>
<path d="M16.2598 23.5195V28.4895C16.2598 30.3095 16.2598 30.3095 17.9798 31.4695L22.7098 34.1995C23.4198 34.6095 24.5798 34.6095 25.2898 34.1995L30.0198 31.4695C31.7398 30.3095 31.7398 30.3095 31.7398 28.4895V23.5195C31.7398 21.6995 31.7398 21.6995 30.0198 20.5395L25.2898 17.8095C24.5798 17.3995 23.4198 17.3995 22.7098 17.8095L17.9798 20.5395C16.2598 21.6995 16.2598 21.6995 16.2598 23.5195Z" stroke="#292D32" stroke-width="1.5" stroke-linecap="round" stroke-linejoin="round"/>
<path d="M29.5 20.13V17.5C29.5 15.5 28.5 14.5 26.5 14.5H21.5C19.5 14.5 18.5 15.5 18.5 17.5V20.06" stroke="#292D32" stroke-width="1.5" stroke-linecap="round" stroke-linejoin="round"/>
<path d="M24.6298 23.4909L25.1998 24.3809C25.2898 24.5209 25.4898 24.6609 25.6398 24.7009L26.6598 24.9609C27.2898 25.1209 27.4598 25.6609 27.0498 26.1609L26.3798 26.9709C26.2798 27.1009 26.1998 27.3309 26.2098 27.4909L26.2698 28.5409C26.3098 29.1909 25.8498 29.5209 25.2498 29.2809L24.2698 28.8909C24.1198 28.8309 23.8698 28.8309 23.7198 28.8909L22.7398 29.2809C22.1398 29.5209 21.6798 29.1809 21.7198 28.5409L21.7798 27.4909C21.7898 27.3309 21.7098 27.0909 21.6098 26.9709L20.9398 26.1609C20.5298 25.6609 20.6998 25.1209 21.3298 24.9609L22.3498 24.7009C22.5098 24.6609 22.7098 24.5109 22.7898 24.3809L23.3598 23.4909C23.7198 22.9509 24.2798 22.9509 24.6298 23.4909Z" stroke="#292D32" stroke-width="1.5" stroke-linecap="round" stroke-linejoin="round"/>
</svg>
