<svg width="48" height="49" viewBox="0 0 48 49" fill="none" xmlns="http://www.w3.org/2000/svg">
<rect y="0.5" width="48" height="48" rx="24" fill="#B8B9BB"/>
<path d="M22.4902 14.7305L17.5002 16.6105C16.3502 17.0405 15.4102 18.4005 15.4102 19.6205V27.0505C15.4102 28.2305 16.1902 29.7805 17.1402 30.4905L21.4402 33.7005C22.8502 34.7605 25.1702 34.7605 26.5802 33.7005L30.8802 30.4905C31.8302 29.7805 32.6102 28.2305 32.6102 27.0505V19.6205C32.6102 18.3905 31.6702 17.0305 30.5202 16.6005L25.5302 14.7305C24.6802 14.4205 23.3202 14.4205 22.4902 14.7305Z" stroke="#292D32" stroke-width="1.5" stroke-linecap="round" stroke-linejoin="round"/>
<path d="M24 25C25.1046 25 26 24.1046 26 23C26 21.8954 25.1046 21 24 21C22.8954 21 22 21.8954 22 23C22 24.1046 22.8954 25 24 25Z" stroke="#292D32" stroke-width="1.5" stroke-miterlimit="10" stroke-linecap="round" stroke-linejoin="round"/>
<path d="M24 25V28" stroke="#292D32" stroke-width="1.5" stroke-miterlimit="10" stroke-linecap="round" stroke-linejoin="round"/>
</svg>
