<svg width="18" height="18" viewBox="0 0 18 18" fill="none" xmlns="http://www.w3.org/2000/svg">
<path d="M9.49497 1.8886L9.47247 1.9411L7.29747 6.9886H5.15997C4.64997 6.9886 4.16247 7.0936 3.71997 7.2811L5.03247 4.1461L5.06247 4.0711L5.11497 3.9511C5.12997 3.9061 5.14497 3.8611 5.16747 3.8236C6.14997 1.5511 7.25997 1.0336 9.49497 1.8886Z" stroke="#9C9CA4" stroke-linecap="round" stroke-linejoin="round"/>
<path d="M13.5376 7.13861C13.2001 7.03361 12.8401 6.98861 12.4801 6.98861H7.29761L9.47261 1.94111L9.49511 1.88861C9.60761 1.92611 9.71261 1.97861 9.82511 2.02361L11.4826 2.72111C12.4051 3.10361 13.0501 3.50111 13.4401 3.98111C13.5151 4.07111 13.5751 4.15361 13.6276 4.25111C13.6951 4.35611 13.7476 4.46111 13.7776 4.57361C13.8076 4.64111 13.8301 4.70861 13.8451 4.76861C14.0476 5.39861 13.9276 6.17111 13.5376 7.13861Z" stroke="#9C9CA4" stroke-linecap="round" stroke-linejoin="round"/>
<path d="M16.1413 10.6488V12.1113C16.1413 12.2613 16.1338 12.4113 16.1263 12.5613C15.9838 15.1788 14.5213 16.4988 11.7463 16.4988H5.89629C5.71629 16.4988 5.53629 16.4838 5.36379 16.4613C2.97879 16.3038 1.70379 15.0288 1.54629 12.6438C1.52379 12.4713 1.50879 12.2913 1.50879 12.1113V10.6488C1.50879 9.14127 2.42379 7.84377 3.72879 7.28127C4.17879 7.09377 4.65879 6.98877 5.16879 6.98877H12.4888C12.8563 6.98877 13.2163 7.04127 13.5463 7.13877C15.0388 7.59627 16.1413 8.99127 16.1413 10.6488Z" stroke="#9C9CA4" stroke-linecap="round" stroke-linejoin="round"/>
<path d="M5.0325 4.14612L3.72 7.28112C2.415 7.84362 1.5 9.14112 1.5 10.6486V8.45112C1.5 6.32112 3.015 4.54362 5.0325 4.14612Z" stroke="#9C9CA4" stroke-linecap="round" stroke-linejoin="round"/>
<path d="M16.1389 8.45074V10.6482C16.1389 8.99824 15.0439 7.59574 13.5439 7.14574C13.9339 6.17074 14.0464 5.40574 13.8589 4.76824C13.8439 4.70074 13.8214 4.63324 13.7914 4.57324C15.1864 5.29324 16.1389 6.77074 16.1389 8.45074Z" stroke="#9C9CA4" stroke-linecap="round" stroke-linejoin="round"/>
</svg>
